<?xml version="1.0" encoding="UTF-8"?>
<svg id="Layer_2" data-name="Layer 2" xmlns="http://www.w3.org/2000/svg" viewBox="0 0 565.84 399.32">
  <defs>
    <style>
      .cls-1 {
        fill: #fff;
      }
    </style>
  </defs>
  <g id="Layer_1-2" data-name="Layer 1">
    <g>
      <path class="cls-1" d="M25.55,113.58v-1.6c3.28-.64,5.63-1.65,7.06-3.04,1.43-1.39,2.41-3.95,2.94-7.69.53-3.74.79-9.77.79-18.1V9.77c-6.77,0-11.93.88-15.48,2.64-3.55,1.76-6.19,4.78-7.94,9.05-1.75,4.27-3.15,10.68-4.21,19.23h-2.86L7.14,4.65h74.92l1.27,36.05h-2.86c-1.17-8.76-2.62-15.24-4.36-19.47-1.75-4.22-4.36-7.18-7.86-8.89-3.49-1.71-8.63-2.56-15.4-2.56v73.37c0,8.33.26,14.37.79,18.1.53,3.74,1.51,6.3,2.94,7.69,1.43,1.39,3.78,2.4,7.06,3.04v1.6H25.55Z"/>
      <path class="cls-1" d="M86.66,113.58v-1.6c2.33-.42,4.07-1.2,5.24-2.32,1.16-1.12,2.01-3.26,2.54-6.41.53-3.15.79-7.98.79-14.5V24.83c0-5.02-.24-8.73-.71-11.13-.48-2.4-1.3-4.08-2.46-5.05-1.17-.96-2.96-1.6-5.4-1.92v-1.6c3.49,0,7.43-.48,11.82-1.44,4.39-.96,8.23-2.19,11.51-3.68h.79v88.75c0,6.52.26,11.35.79,14.5.53,3.15,1.37,5.29,2.54,6.41,1.16,1.12,2.91,1.9,5.24,2.32v1.6h-32.7ZM124.75,113.58v-1.6c2.33-.42,4.07-1.2,5.24-2.32,1.16-1.12,2.01-3.26,2.54-6.41.53-3.15.79-7.98.79-14.5v-32.68c0-5.45-.85-9.26-2.54-11.45-1.69-2.19-4.6-3.29-8.73-3.29-2.33,0-4.6.4-6.82,1.2s-4.34,1.84-6.35,3.12l-.64-3.2c4.02-3.21,8.33-5.77,12.94-7.69,4.6-1.92,8.81-2.88,12.62-2.88,5.08,0,8.86,1.5,11.35,4.49,2.48,2.99,3.73,7.96,3.73,14.9v37.49c0,6.52.26,11.35.79,14.5.53,3.15,1.37,5.29,2.54,6.41,1.16,1.12,2.91,1.9,5.24,2.32v1.6h-32.7Z"/>
      <path class="cls-1" d="M175.46,110.46c-4.6-3.58-7.99-8.46-10.16-14.66-2.17-6.19-3.25-13.35-3.25-21.47,0-7.69,1.14-14.77,3.41-21.23,2.27-6.46,5.71-11.61,10.32-15.46,4.6-3.85,10.34-5.77,17.22-5.77,9.42,0,16.16,3.18,20.24,9.53,4.07,6.36,6.11,15.41,6.11,27.16h-46.51l.16-3.21h29.52c-.21-7.9-.66-14.04-1.35-18.42-.69-4.38-1.77-7.5-3.25-9.37-1.48-1.87-3.49-2.8-6.03-2.8s-4.55,1.02-6.35,3.04c-1.8,2.03-3.25,5.42-4.36,10.17-1.11,4.75-1.72,11.03-1.83,18.83l-.32.96v3.04c0,10.04,1.37,17.76,4.13,23.15,2.75,5.39,7.78,8.09,15.08,8.09,4.23,0,7.96-.93,11.19-2.8,3.23-1.87,5.95-4.99,8.17-9.37l1.43.32c-1.17,8.55-4,14.95-8.49,19.23-4.5,4.27-10.34,6.41-17.54,6.41s-12.94-1.79-17.54-5.37Z"/>
      <path class="cls-1" d="M40.16,230.98c.74,3.42,1.93,5.77,3.57,7.05,1.64,1.28,4.05,2.08,7.22,2.4v1.76H5.87v-1.6c2.64-.42,4.6-1.36,5.87-2.8,1.27-1.44,2.14-3.87,2.62-7.29.48-3.42.71-8.76.71-16.02v-53.51c0-7.26-.24-12.6-.71-16.02-.48-3.42-1.35-5.85-2.62-7.29-1.27-1.44-3.23-2.38-5.87-2.8v-1.6h33.17v82.19c0,6.94.37,12.12,1.11,15.54ZM68.73,148.8c-2.01-2.99-5.11-5.37-9.29-7.13-4.18-1.76-9.71-2.64-16.59-2.64h-9.36l-17.46-5.77h59.2v26.91h-2.06c-.95-4.59-2.44-8.38-4.44-11.38ZM63.25,197.5c-1.32-2.24-3.17-3.98-5.56-5.21s-5.58-1.84-9.6-1.84h-18.25v-5.93h18.41c3.91,0,7.09-.61,9.52-1.84,2.43-1.23,4.31-2.86,5.63-4.89,1.32-2.03,2.3-4.59,2.94-7.69h2.06v35.88h-2.06c-.74-3.42-1.77-6.25-3.1-8.49Z"/>
      <path class="cls-1" d="M110.23,231.62c.37,3.2,1.08,5.42,2.14,6.65,1.06,1.23,2.7,2,4.92,2.32v1.6h-38.73v-1.6c2.12-.32,3.7-1.09,4.76-2.32,1.06-1.23,1.77-3.44,2.14-6.65.37-3.2.56-8.27.56-15.22v-28.36c0-5.55-.16-9.59-.48-12.09-.32-2.51-1.01-4.35-2.06-5.53-1.06-1.17-2.7-1.92-4.92-2.24v-1.6c4.97-.11,10.32-.75,16.03-1.92,5.71-1.17,10.42-2.56,14.13-4.16h.95v55.91c0,6.94.18,12.02.56,15.22ZM87.37,154.88c-2.7-2.67-4.05-5.98-4.05-9.93s1.35-7.29,4.05-10.01,6-4.08,9.92-4.08,7.25,1.36,10,4.08c2.75,2.72,4.13,6.06,4.13,10.01s-1.38,7.13-4.13,9.85c-2.75,2.72-6.09,4.08-10,4.08s-7.22-1.33-9.92-4.01Z"/>
      <path class="cls-1" d="M119.04,242.2v-1.6c2.12-.32,3.7-1.15,4.76-2.48,1.06-1.33,1.77-3.5,2.14-6.49.37-2.99.56-7.58.56-13.78v-30.12c0-5.45-.16-9.42-.48-11.94-.32-2.51-1.01-4.35-2.06-5.53-1.06-1.17-2.7-1.92-4.92-2.24v-1.6c4.76-.11,9.79-.74,15.08-1.92,5.29-1.17,10.21-2.56,14.76-4.17h.95l-.48,12.98.48,1.28v43.25c0,5.66.1,10.17.32,13.54.21,3.36.61,5.66,1.19,6.89.58,1.23,1.56,2,2.94,2.32v1.6h-35.24ZM161.1,242.2v-1.6c1.37-.32,2.38-1.01,3.02-2.08s1.06-2.88,1.27-5.45c.21-2.56.32-6.67.32-12.33v-37.01c0-3.84-.5-6.41-1.51-7.69-1.01-1.28-3.04-1.92-6.11-1.92-3.28,0-6.72,1.23-10.32,3.68l-.63-4.01c3.49-3.63,7.54-6.78,12.14-9.45,4.6-2.67,9.13-4.01,13.57-4.01,5.29,0,9.31,1.74,12.06,5.21,2.75,3.47,4.13,8.73,4.13,15.78v36.53c0,6.2.21,10.79.64,13.78.42,2.99,1.16,5.15,2.22,6.49,1.06,1.34,2.64,2.16,4.76,2.48v1.6h-35.55Z"/>
      <path class="cls-1" d="M203.79,238.35c-3.17-4.06-4.76-9.56-4.76-16.5,0-5.66,1.32-10.33,3.97-14.02,2.64-3.69,6.82-6.73,12.54-9.13,5.71-2.4,13.54-4.57,23.49-6.49l-.16,3.37c-4.55.86-7.99,2.14-10.32,3.85-2.33,1.71-3.92,3.95-4.76,6.73-.85,2.78-1.27,6.57-1.27,11.37,0,5.56.66,9.59,1.98,12.1,1.32,2.51,3.2,3.76,5.64,3.76s4.44-1.01,5.71-3.04c1.27-2.03,1.9-5.23,1.9-9.61l1.91,8.33c-1.38,5.23-4.05,9.11-8.02,11.62-3.97,2.51-8.55,3.76-13.73,3.76-6.24,0-10.95-2.03-14.13-6.09ZM243.32,241.16c-2.01-2.19-3.44-5.15-4.29-8.89-.32-1.17-.53-2.14-.64-2.88l-.64.32v-37.33c0-5.98-1.14-10.25-3.41-12.82-2.28-2.56-6.43-3.85-12.46-3.85-3.81,0-7.22.67-10.24,2-3.02,1.34-5.9,3.23-8.65,5.69l-1.27-.8c.64-3.85,2.3-7.45,5-10.82,2.7-3.36,6.27-6.11,10.71-8.25,4.44-2.14,9.52-3.21,15.24-3.21,9.63,0,16.67,2.32,21.11,6.97,4.44,4.65,6.67,11.45,6.67,20.43v34.44c0,2.67.42,4.7,1.27,6.09.85,1.39,2.27,2.08,4.29,2.08.85-.11,1.59-.21,2.22-.32l.64.64c-.85,4.7-2.73,8.17-5.63,10.41-2.91,2.24-6.54,3.37-10.87,3.37-4.02,0-7.04-1.1-9.05-3.28Z"/>
      <path class="cls-1" d="M270.14,242.2v-1.6c2.12-.32,3.7-1.15,4.76-2.48,1.06-1.33,1.77-3.5,2.14-6.49.37-2.99.56-7.58.56-13.78v-30.12c0-5.45-.16-9.42-.48-11.94-.32-2.51-1.01-4.35-2.06-5.53-1.06-1.17-2.7-1.92-4.92-2.24v-1.6c4.76-.11,9.79-.74,15.08-1.92,5.29-1.17,10.21-2.56,14.76-4.17h.95l-.48,12.98.48,1.28v43.25c0,5.66.1,10.17.32,13.54.21,3.36.61,5.66,1.19,6.89.58,1.23,1.56,2,2.94,2.32v1.6h-35.24ZM312.2,242.2v-1.6c1.37-.32,2.38-1.01,3.02-2.08s1.06-2.88,1.27-5.45c.21-2.56.32-6.67.32-12.33v-37.01c0-3.84-.5-6.41-1.51-7.69-1.01-1.28-3.04-1.92-6.11-1.92-3.28,0-6.72,1.23-10.32,3.68l-.63-4.01c3.49-3.63,7.54-6.78,12.14-9.45,4.6-2.67,9.13-4.01,13.57-4.01,5.29,0,9.31,1.74,12.06,5.21,2.75,3.47,4.13,8.73,4.13,15.78v36.53c0,6.2.21,10.79.64,13.78.42,2.99,1.16,5.15,2.22,6.49,1.06,1.34,2.64,2.16,4.76,2.48v1.6h-35.55Z"/>
      <path class="cls-1" d="M357.91,233.79c-5.93-7.21-8.89-17.6-8.89-31.16,0-7.8,1.24-14.9,3.73-21.31,2.48-6.41,6.32-11.51,11.51-15.3,5.18-3.79,11.64-5.69,19.36-5.69,8.89,0,15.69,1.79,20.4,5.37,4.71,3.58,7.06,8.73,7.06,15.46,0,1.28-.05,2.51-.16,3.69l-20.16,5.93.16-5.45c0-7.37-.77-12.71-2.3-16.02-1.53-3.31-3.63-4.97-6.27-4.97-3.07,0-5.24,2.3-6.51,6.89-1.27,4.59-1.9,11.21-1.9,19.87,0,11.75,1.48,20.18,4.44,25.31,2.96,5.13,8.04,7.69,15.24,7.69,4.13,0,7.51-.67,10.16-2,2.64-1.33,5.02-3.77,7.14-7.29l1.43.32c-.64,9.61-3.44,16.93-8.41,21.95-4.97,5.02-12.12,7.53-21.43,7.53-10.48,0-18.68-3.6-24.6-10.81Z"/>
      <path class="cls-1" d="M446.72,231.62c.37,3.2,1.08,5.42,2.14,6.65,1.06,1.23,2.7,2,4.92,2.32v1.6h-38.73v-1.6c2.12-.32,3.7-1.09,4.76-2.32,1.06-1.23,1.77-3.44,2.14-6.65.37-3.2.56-8.27.56-15.22v-28.36c0-5.55-.16-9.59-.48-12.09-.32-2.51-1.01-4.35-2.06-5.53-1.06-1.17-2.7-1.92-4.92-2.24v-1.6c4.97-.11,10.32-.75,16.03-1.92,5.71-1.17,10.42-2.56,14.13-4.16h.95v55.91c0,6.94.18,12.02.56,15.22ZM423.86,154.88c-2.7-2.67-4.05-5.98-4.05-9.93s1.35-7.29,4.05-10.01,6-4.08,9.92-4.08,7.25,1.36,10,4.08c2.75,2.72,4.13,6.06,4.13,10.01s-1.38,7.13-4.13,9.85c-2.75,2.72-6.09,4.08-10,4.08s-7.22-1.33-9.92-4.01Z"/>
      <path class="cls-1" d="M461.24,238.35c-3.17-4.06-4.76-9.56-4.76-16.5,0-5.66,1.32-10.33,3.97-14.02,2.64-3.69,6.82-6.73,12.54-9.13,5.71-2.4,13.54-4.57,23.49-6.49l-.16,3.37c-4.55.86-7.99,2.14-10.32,3.85-2.33,1.71-3.92,3.95-4.76,6.73-.85,2.78-1.27,6.57-1.27,11.37,0,5.56.66,9.59,1.98,12.1,1.32,2.51,3.2,3.76,5.64,3.76s4.44-1.01,5.71-3.04c1.27-2.03,1.9-5.23,1.9-9.61l1.91,8.33c-1.38,5.23-4.05,9.11-8.02,11.62-3.97,2.51-8.55,3.76-13.73,3.76-6.24,0-10.95-2.03-14.13-6.09ZM500.76,241.16c-2.01-2.19-3.44-5.15-4.29-8.89-.32-1.17-.53-2.14-.64-2.88l-.64.32v-37.33c0-5.98-1.14-10.25-3.41-12.82-2.28-2.56-6.43-3.85-12.46-3.85-3.81,0-7.22.67-10.24,2-3.02,1.34-5.9,3.23-8.65,5.69l-1.27-.8c.64-3.85,2.3-7.45,5-10.82,2.7-3.36,6.27-6.11,10.71-8.25,4.44-2.14,9.52-3.21,15.24-3.21,9.63,0,16.67,2.32,21.11,6.97,4.44,4.65,6.67,11.45,6.67,20.43v34.44c0,2.67.42,4.7,1.27,6.09.85,1.39,2.27,2.08,4.29,2.08.85-.11,1.59-.21,2.22-.32l.64.64c-.85,4.7-2.73,8.17-5.63,10.41-2.91,2.24-6.54,3.37-10.87,3.37-4.02,0-7.04-1.1-9.05-3.28Z"/>
      <path class="cls-1" d="M526.79,242.2v-1.6c2.22-.32,3.86-1.09,4.92-2.32,1.06-1.23,1.77-3.44,2.14-6.65.37-3.2.56-8.27.56-15.22v-61.36c0-5.45-.16-9.37-.48-11.78-.32-2.4-1.01-4.16-2.06-5.29-1.06-1.12-2.75-1.84-5.08-2.16v-1.6c5.08,0,10.4-.56,15.95-1.68,5.56-1.12,10.29-2.54,14.21-4.25h1.11v88.11c0,6.94.18,12.02.56,15.22.37,3.2,1.11,5.39,2.22,6.57,1.11,1.18,2.78,1.98,5,2.4v1.6h-39.04Z"/>
      <path class="cls-1" d="M7.06,366.08c1.64-1.44,3.09-4.08,4.36-7.93,1.27-3.84,2.59-9.77,3.97-17.78l8.25-48.06c1.48-8.76,2.22-14.9,2.22-18.42s-.56-6.14-1.67-7.53c-1.11-1.39-2.94-2.35-5.48-2.88l.32-1.6h31.11c11.75,0,20.42,1.52,26.03,4.57,5.61,3.04,8.41,8.09,8.41,15.14,0,1.28-.21,3.42-.63,6.41-1.38,7.8-4.98,14.02-10.79,18.66-5.82,4.65-13.44,7.34-22.86,8.09l.63-1.28c9.73.86,16.98,3.1,21.75,6.73,4.76,3.63,7.14,8.71,7.14,15.22,0,1.18-.21,3.15-.63,5.93-1.91,10.89-6.72,18.53-14.44,22.91-7.73,4.38-19,6.57-33.81,6.57H0l.32-1.6c2.86-.64,5.1-1.68,6.75-3.12ZM44.28,365.2c4.13-1.07,7.62-3.44,10.48-7.13,2.86-3.68,4.97-9.37,6.35-17.06.42-2.24.64-4.59.64-7.05,0-6.19-1.77-10.63-5.32-13.3-3.55-2.67-8.65-4.01-15.32-4.01h-6.19l.79-4.33h5.08c6.88,0,12.59-1.65,17.14-4.97,4.55-3.31,7.67-9.77,9.36-19.39.42-2.03.64-4.01.64-5.93,0-6.62-2.14-10.95-6.43-12.98s-9.87-3.04-16.74-3.04l-17.62,100.77c7.3,0,13.01-.53,17.14-1.6Z"/>
      <path class="cls-1" d="M85.23,370.81l11.9-52.55c1.37-5.77,2.06-10.04,2.06-12.82,0-3.42-1.06-5.13-3.17-5.13-1.17,0-2.33.51-3.49,1.52-1.17,1.02-2.54,3.34-4.13,6.97l-1.9-.48c2.12-6.19,4.81-10.95,8.09-14.26,3.28-3.31,6.98-4.97,11.11-4.97,3.7,0,6.32,1.18,7.86,3.52,1.53,2.35,2.3,5.39,2.3,9.13,0,2.67-.48,6.3-1.43,10.89l-13.33,58.15h-15.87ZM120.15,297.43c3.28-3.95,6.37-6.38,9.29-7.29,2.91-.91,6.48-1.36,10.71-1.36l-4.6,15.7c-3.92-2.35-7.09-3.52-9.52-3.52s-4.26.64-5.79,1.92c-1.53,1.28-2.99,3.6-4.36,6.97-1.38,3.36-2.75,8.2-4.13,14.5l-1.27-8.49c3.17-8.33,6.4-14.47,9.68-18.42Z"/>
      <path class="cls-1" d="M139.2,369.29c-1.69-2.3-2.54-5.47-2.54-9.53,0-3.85.69-8.44,2.06-13.78l7.94-30.92c1.16-4.7,1.75-8.27,1.75-10.73,0-3.52-1.11-5.29-3.33-5.29-1.38,0-2.62.59-3.73,1.76-1.11,1.18-2.41,3.37-3.89,6.57l-1.75-.48c1.06-3.74,2.43-6.91,4.13-9.53,1.69-2.61,3.73-4.65,6.11-6.09,2.38-1.44,5-2.16,7.86-2.16,3.6,0,6.24,1.15,7.94,3.44,1.69,2.3,2.54,5.47,2.54,9.53,0,3.52-.58,7.53-1.75,12.02l-7.3,29.48c-1.59,6.2-2.38,10.47-2.38,12.82,0,3.1,1.32,4.65,3.97,4.65,1.27,0,2.64-.53,4.13-1.6,1.48-1.07,2.7-2.51,3.65-4.32l1.27.96c-2.12,5.66-4.79,9.85-8.01,12.58-3.23,2.72-6.75,4.08-10.56,4.08s-6.4-1.15-8.09-3.44ZM151.42,278.13c-1.59-1.66-2.38-3.82-2.38-6.49,0-3.42,1.16-6.38,3.49-8.89,2.33-2.51,5.34-3.76,9.05-3.76,2.86,0,5.08.88,6.67,2.64s2.38,4.03,2.38,6.81c0,3.42-1.3,6.3-3.89,8.65-2.59,2.35-5.53,3.52-8.81,3.52-2.75,0-4.92-.83-6.51-2.48Z"/>
      <path class="cls-1" d="M176.5,364.88c-3.7-5.23-5.56-11.59-5.56-19.06,0-8.44,1.91-17.09,5.71-25.95,3.81-8.86,8.83-16.21,15.08-22.03,6.24-5.82,12.86-8.73,19.84-8.73,6.03,0,10.56,1.58,13.57,4.73,3.01,3.15,4.52,7.18,4.52,12.09,0,7.8-3.55,14.31-10.63,19.54-7.09,5.23-18.04,8.28-32.86,9.13l.64-3.2c7.41-.74,13.36-2.4,17.86-4.97,4.5-2.56,7.7-5.77,9.6-9.61,1.9-3.84,2.86-8.17,2.86-12.98,0-3.85-.66-6.51-1.98-8.01-1.32-1.49-3.25-2.24-5.79-2.24-3.49,0-6.9,2.06-10.24,6.17-3.33,4.11-6.03,9.69-8.09,16.74-2.06,7.05-3.09,14.74-3.09,23.07,0,6.2,1.06,10.97,3.17,14.34,2.12,3.36,5.61,5.05,10.48,5.05,4.34,0,8.09-1.07,11.27-3.2,3.17-2.14,6.29-5.98,9.36-11.53l1.59.8c-2.86,8.44-6.88,15.17-12.06,20.18-5.19,5.02-11.64,7.53-19.36,7.53-6.88,0-12.17-2.61-15.87-7.85Z"/>
      <path class="cls-1" d="M205.07,397.96c-2.96-.91-5.34-2.16-7.14-3.76l6.03-16.18c1.27,5.55,2.78,9.56,4.52,12.02s4.21,3.69,7.38,3.69c2.22,0,4.15-.64,5.79-1.92,1.64-1.28,3.2-3.87,4.68-7.77,1.48-3.9,2.96-9.59,4.44-17.06l13.33-67.61h-8.25l.32-1.6c3.17-1.6,5.69-3.79,7.54-6.57,1.85-2.78,3.99-6.67,6.43-11.7,2.22-4.91,4.29-8.84,6.19-11.77,1.91-2.94,4.58-5.42,8.02-7.45,3.44-2.03,7.91-3.04,13.41-3.04,3.28,0,6.43.75,9.44,2.24,3.02,1.5,4.52,4.65,4.52,9.45,0,1.28-.16,2.83-.48,4.65l-12.06,4.16c.53-2.88.79-5.23.79-7.05,0-2.78-.45-4.94-1.35-6.49-.9-1.55-2.3-2.32-4.21-2.32-2.96,0-5.16,1.63-6.59,4.89-1.43,3.26-2.94,9.05-4.52,17.38l-1.59,8.65h18.89l-4.29,6.57h-15.87l-12.86,64.4c-2.54,12.92-6.56,22.08-12.06,27.48-5.5,5.39-12.48,8.09-20.95,8.09-3.39,0-6.56-.46-9.52-1.36Z"/>
    </g>
  </g>
</svg>
