<?xml version="1.0" encoding="UTF-8"?>
<svg id="Layer_2" data-name="Layer 2" xmlns="http://www.w3.org/2000/svg" viewBox="0 0 531.68 79.67">
  <defs>
    <style>
      .cls-1 {
        fill: #686868;
      }
    </style>
  </defs>
  <g id="Layer_1-2" data-name="Layer 1">
    <g>
      <polygon class="cls-1" points=".65 31.48 0 42.28 1.15 42.28 4.19 33.38 9.68 33.38 9.68 60.85 5.53 61.75 5.53 63.11 17.66 63.11 17.66 61.75 13.52 60.85 13.52 33.38 19.01 33.38 22.04 42.28 23.19 42.28 22.54 31.48 .65 31.48"/>
      <path class="cls-1" d="M42.97,45.58c0-2.08-.49-3.7-1.48-4.88-.99-1.17-2.29-1.76-3.9-1.76-1.36,0-2.73.47-4.11,1.42-1.14.78-2.13,1.8-3,3.02v-14.2c-.54.12-1.17.24-1.88.36-.72.12-1.48.23-2.28.34-.81.11-1.65.19-2.52.25v1.36h3.23v29.59l-3.23.68v1.36h9.91v-1.36l-3.23-.68v-16.12c.73-.86,1.54-1.58,2.42-2.13,1.1-.69,2.2-1.04,3.3-1.04,1.33,0,2.21.47,2.65,1.42.44.95.65,2.21.65,3.77v14.1l-3.23.68v1.36h9.91v-1.36l-3.23-.68v-15.5Z"/>
      <path class="cls-1" d="M59.18,60.19c-.95.74-1.93,1.11-2.96,1.11-1.33,0-2.5-.43-3.49-1.29-1-.86-1.77-2.06-2.3-3.61-.54-1.55-.81-3.38-.81-5.49,0-.05,0-.09,0-.14h12.94c.13-2.38-.15-4.46-.83-6.23-.68-1.78-1.63-3.15-2.86-4.13-1.23-.98-2.65-1.47-4.26-1.47-1.72,0-3.22.51-4.51,1.54-1.29,1.02-2.29,2.45-3,4.27-.7,1.82-1.06,3.94-1.06,6.35s.37,4.68,1.11,6.55c.74,1.87,1.76,3.32,3.05,4.36,1.29,1.04,2.77,1.56,4.44,1.56,1.13,0,2.19-.2,3.19-.61,1-.41,1.91-1.06,2.73-1.97.82-.9,1.5-2.06,2.04-3.48l-1.08-.63c-.61,1.48-1.4,2.58-2.34,3.32ZM50.19,45.44c.38-1.51.95-2.65,1.71-3.43.75-.78,1.66-1.17,2.71-1.17.87,0,1.63.29,2.27.86.64.57,1.14,1.37,1.5,2.39.36,1.02.54,2.24.54,3.66,0,.38-.02.75-.04,1.13h-9.18c.09-1.28.25-2.43.5-3.43Z"/>
      <polygon points="63.55 7.87 69.89 9.44 69.89 58.8 63.55 60.38 63.55 63.11 89.46 63.11 89.46 60.38 82.42 58.8 82.42 36.85 89.95 36.85 93.68 49.44 95.86 49.44 95.3 34.95 96.57 21.7 94.25 21.7 89.95 33.71 82.42 33.71 82.42 8.53 96.99 8.53 102.9 26.09 105.23 26.09 105.23 5.13 63.55 5.13 63.55 7.87"/>
      <path d="M122.12,18.22c-1.27.22-2.79.44-4.58.66-1.78.22-3.64.4-5.56.54-1.92.14-3.83.26-5.7.37v2.73h4.79v36.61l-4.79,1.24v2.73h20.63v-2.73l-4.79-1.24V18.22Z"/>
      <path d="M116.14,13.75c2.06,0,3.72-.62,4.96-1.86,1.24-1.24,1.87-2.91,1.87-5.01s-.62-3.77-1.87-5.01c-1.24-1.24-2.9-1.86-4.96-1.86s-3.72.62-4.96,1.86c-1.24,1.24-1.87,2.91-1.87,5.01s.62,3.77,1.87,5.01c1.24,1.24,2.9,1.86,4.96,1.86Z"/>
      <path d="M168.3,30.64c0-3.7-.99-6.6-2.96-8.7-1.97-2.1-4.67-3.15-8.1-3.15-2.82,0-5.47.76-7.95,2.28-2.1,1.28-3.77,2.99-5.07,5.08v-7.6c-1.17.22-2.63.41-4.36.58-1.74.17-3.59.3-5.56.41-1.97.11-3.94.19-5.91.25v2.73h4.79v36.61l-4.79,1.24v2.73h20.63v-2.73l-4.79-1.24v-29.09c1.09-1.54,2.27-2.77,3.55-3.66,1.62-1.13,3.27-1.7,4.96-1.7s2.92.64,3.56,1.9c.63,1.27.95,3.12.95,5.55v27l-4.79,1.24v2.73h20.63v-2.73l-4.79-1.24v-28.49Z"/>
      <path d="M206.1,31.72c0-4.25-1.26-7.47-3.77-9.65-2.51-2.18-6.47-3.27-11.86-3.27-1.6,0-3.25.14-4.96.41-1.71.28-3.37.69-4.96,1.24-1.6.55-2.98,1.24-4.15,2.07l2.39,11.51,2.11-.25c.52-2.48,1.25-4.6,2.22-6.34.96-1.74,2.05-3.06,3.27-3.98,1.22-.91,2.44-1.37,3.66-1.37,1.08,0,1.97.28,2.68.83.7.55,1.23,1.34,1.58,2.36.35,1.02.6,2.26.74,3.73.14,1.46.21,3.11.21,4.93v3.81c-4.22,1.1-7.71,2.21-10.45,3.31-2.75,1.1-4.92,2.28-6.51,3.52-1.6,1.24-2.73,2.64-3.41,4.18-.68,1.55-1.02,3.34-1.02,5.38,0,2.87.74,5.22,2.22,7.04,1.48,1.82,3.53,2.73,6.16,2.73,2.25,0,4.56-.75,6.93-2.24,2.07-1.3,4.1-3.16,6.09-5.57v7.8c1.31-.39,2.75-.7,4.29-.95,1.55-.25,3.2-.46,4.96-.62,1.76-.17,3.63-.28,5.6-.33v-2.73h-4.01v-27.58ZM192.52,55.41c-1.31.83-2.56,1.24-3.73,1.24-1.46,0-2.57-.48-3.34-1.45-.77-.97-1.16-2.33-1.16-4.1s.36-3.38,1.09-4.68c.73-1.3,1.9-2.39,3.52-3.27,1.62-.88,3.74-1.68,6.37-2.4v12.15c-.83,1.04-1.75,1.88-2.75,2.51Z"/>
      <path d="M251.16,30.64c0-3.7-.99-6.6-2.96-8.7-1.97-2.1-4.67-3.15-8.1-3.15-2.82,0-5.47.76-7.95,2.28-2.1,1.28-3.77,2.99-5.07,5.08v-7.6c-1.17.22-2.63.41-4.36.58-1.74.17-3.59.3-5.56.41-1.97.11-3.94.19-5.91.25v2.73h4.79v36.61l-4.79,1.24v2.73h20.63v-2.73l-4.79-1.24v-29.09c1.09-1.54,2.27-2.77,3.55-3.66,1.62-1.13,3.27-1.7,4.96-1.7s2.92.64,3.56,1.9c.63,1.27.95,3.12.95,5.55v27l-4.79,1.24v2.73h20.63v-2.73l-4.79-1.24v-28.49Z"/>
      <path d="M282.45,56.69c-1.62,1.24-3.44,1.86-5.46,1.86-2.21,0-4.12-.7-5.74-2.11-1.62-1.41-2.88-3.42-3.77-6.05-.89-2.62-1.34-5.84-1.34-9.65,0-4.42.39-7.98,1.16-10.68.77-2.7,1.79-4.67,3.06-5.88,1.27-1.21,2.7-1.82,4.29-1.82,1.36,0,2.58.58,3.66,1.74,1.08,1.16,2.01,2.79,2.78,4.89.77,2.1,1.37,4.58,1.79,7.45h2.32l1.97-15.16c-.75-.44-1.79-.86-3.13-1.24-1.34-.39-2.82-.69-4.43-.91-1.62-.22-3.18-.33-4.68-.33-4.13,0-7.7.93-10.7,2.77-3,1.85-5.33,4.47-6.97,7.87-1.64,3.4-2.46,7.41-2.46,12.05s.77,8.56,2.32,11.93c1.55,3.37,3.72,5.96,6.51,7.79,2.79,1.82,6.06,2.73,9.82,2.73,3.38,0,6.39-1.02,9.05-3.06,2.65-2.04,4.63-4.8,5.95-8.28l-1.97-1.16c-1.08,2.26-2.43,4.02-4.05,5.26Z"/>
      <path d="M298.67,13.75c2.06,0,3.72-.62,4.96-1.86,1.24-1.24,1.87-2.91,1.87-5.01s-.62-3.77-1.87-5.01c-1.24-1.24-2.9-1.86-4.96-1.86s-3.72.62-4.96,1.86c-1.24,1.24-1.87,2.91-1.87,5.01s.62,3.77,1.87,5.01c1.24,1.24,2.9,1.86,4.96,1.86Z"/>
      <path d="M304.65,18.22c-1.27.22-2.79.44-4.58.66-1.78.22-3.64.4-5.56.54-1.92.14-3.83.26-5.7.37v2.73h4.79v36.61l-4.79,1.24v2.73h20.63v-2.73l-4.79-1.24V18.22Z"/>
      <path d="M343.02,31.72c0-4.25-1.26-7.47-3.77-9.65-2.51-2.18-6.46-3.27-11.86-3.27-1.6,0-3.25.14-4.96.41-1.71.28-3.37.69-4.96,1.24-1.6.55-2.98,1.24-4.15,2.07l2.39,11.51,2.11-.25c.52-2.48,1.26-4.6,2.22-6.34s2.05-3.06,3.27-3.98c1.22-.91,2.44-1.37,3.66-1.37,1.08,0,1.97.28,2.67.83.7.55,1.23,1.34,1.58,2.36.35,1.02.6,2.26.74,3.73.14,1.46.21,3.11.21,4.93v3.81c-4.22,1.1-7.71,2.21-10.45,3.31-2.75,1.1-4.92,2.28-6.51,3.52-1.6,1.24-2.73,2.64-3.41,4.18-.68,1.55-1.02,3.34-1.02,5.38,0,2.87.74,5.22,2.22,7.04,1.48,1.82,3.53,2.73,6.16,2.73,2.25,0,4.56-.75,6.93-2.24,2.07-1.3,4.1-3.16,6.09-5.57v7.8c1.31-.39,2.75-.7,4.29-.95,1.55-.25,3.2-.46,4.96-.62,1.76-.17,3.62-.28,5.6-.33v-2.73h-4.01v-27.58ZM329.43,55.41c-1.31.83-2.56,1.24-3.73,1.24-1.46,0-2.57-.48-3.34-1.45-.77-.97-1.16-2.33-1.16-4.1s.36-3.38,1.09-4.68c.73-1.3,1.9-2.39,3.52-3.27,1.62-.88,3.74-1.68,6.37-2.4v12.15c-.84,1.04-1.75,1.88-2.75,2.51Z"/>
      <path d="M364.42,5.13V.75c-1.17.28-2.63.53-4.36.75-1.74.22-3.59.41-5.56.58-1.97.17-3.94.28-5.91.33v2.73h4.79v54l-4.79,1.24v2.73h20.63v-2.73l-4.79-1.24V5.13Z"/>
      <path d="M412.82,36.56c-2.51-2.12-5.88-3.33-10.1-3.6,2.63-.61,5.16-1.59,7.6-2.94,2.44-1.35,4.46-3.12,6.05-5.3,1.59-2.18,2.39-4.79,2.39-7.83,0-3.86-1.43-6.79-4.29-8.78-2.86-1.99-7.23-2.98-13.09-2.98h-19.01l-.28,2.48,6.69,1.57-8.87,49.94-7.25,1.49-.28,2.48h20.77c4.83,0,9-.75,12.5-2.24,3.5-1.49,6.19-3.56,8.1-6.21,1.9-2.65,2.85-5.66,2.85-9.03,0-3.92-1.26-6.94-3.77-9.07ZM395.89,8.86h2.25c4.93,0,8.4.82,10.42,2.44,2.02,1.63,3,4.02,2.96,7.16,0,1.99-.41,3.78-1.23,5.38-.82,1.6-1.96,2.98-3.42,4.14-1.46,1.16-3.2,2.04-5.24,2.65-2.04.61-4.31.91-6.79.91h-2.96l4.01-22.69ZM407.43,52.92c-1.31,2.1-3.14,3.74-5.49,4.93-2.35,1.19-5.12,1.78-8.31,1.78-1.31,0-2.48-.12-3.48-.37-1.01-.25-2.03-.57-3.06-.95l4.08-22.94h6.05c3.89,0,6.9.86,9.01,2.57,2.11,1.71,3.17,4.28,3.17,7.7,0,2.76-.66,5.19-1.97,7.29Z"/>
      <path d="M448.36,19.84c-.82-.8-1.96-1.2-3.41-1.2-1.55,0-3.03.58-4.43,1.74s-2.85,3.09-4.33,5.8c-1.48,2.71-3.12,6.36-4.93,10.97-1.17,2.99-2.45,6.47-3.83,10.42.48-2.02.95-4.05,1.43-6.07.59-2.48,1.1-4.86,1.55-7.12.45-2.26.81-4.31,1.09-6.13.28-1.82.42-3.28.42-4.39,0-1.82-.32-3.15-.95-3.98-.63-.83-1.47-1.24-2.5-1.24-1.31,0-2.97.64-4.96,1.9-2,1.27-3.81,3.12-5.46,5.55l1.13,1.33c1.08-1.44,2.08-2.48,2.99-3.15s1.61-.99,2.08-.99c.42,0,.76.15,1.02.46.26.3.39.9.39,1.78,0,.77-.24,2.46-.7,5.05-.47,2.6-1.09,5.76-1.87,9.48s-1.64,7.74-2.6,12.05c-.96,4.31-1.91,8.59-2.85,12.84l5.77-1.82c1.92-5.08,3.66-9.57,5.21-13.46,1.55-3.89,2.94-7.29,4.19-10.19,1.24-2.9,2.33-5.34,3.27-7.33.94-1.99,1.78-3.59,2.53-4.8.75-1.21,1.41-2.1,1.97-2.65.56-.55,1.08-.83,1.55-.83.8,0,1.36.64,1.69,1.9.33,1.27.49,2.79.49,4.56,0,.83-.04,1.68-.11,2.57-.07.88-.15,1.74-.25,2.57-.09.83-.21,1.6-.35,2.32l2.11.17,4.44-15.16c-.38-1.16-.97-2.14-1.8-2.94Z"/>
      <path d="M460.61,58.35c-.96.64-1.7.95-2.22.95-.47,0-.8-.19-.99-.58-.19-.39-.28-.97-.28-1.74s.22-2.19.67-4.27c.45-2.07,1-4.49,1.65-7.25.66-2.76,1.31-5.59,1.97-8.49.66-2.9,1.21-5.58,1.65-8.03.45-2.46.67-4.38.67-5.76,0-1.49-.35-2.61-1.06-3.35-.7-.75-1.6-1.12-2.67-1.12-1.55,0-3.21.62-5,1.86-1.78,1.24-3.52,3.08-5.21,5.51l1.06,1.41c1.08-1.44,2.1-2.48,3.06-3.15.96-.66,1.7-.99,2.22-.99.38,0,.69.14.95.41.26.28.39.69.39,1.24,0,.94-.22,2.47-.67,4.6-.45,2.13-1,4.55-1.65,7.29-.66,2.73-1.31,5.54-1.97,8.41-.66,2.87-1.21,5.54-1.65,7.99-.45,2.46-.67,4.46-.67,6s.27,2.64.81,3.44c.54.8,1.56,1.2,3.06,1.2,1.36,0,2.98-.65,4.86-1.95,1.88-1.3,3.59-3.11,5.14-5.42l-1.06-1.41c-1.08,1.49-2.1,2.55-3.06,3.19Z"/>
      <path d="M462.69,12.26c1.36,0,2.5-.52,3.41-1.57.92-1.05,1.37-2.35,1.37-3.89s-.4-2.72-1.2-3.69c-.8-.97-1.81-1.45-3.03-1.45-1.41,0-2.57.51-3.48,1.53-.92,1.02-1.37,2.33-1.37,3.93,0,1.49.41,2.72,1.23,3.69.82.97,1.84,1.45,3.06,1.45Z"/>
      <path d="M491.48,52.59l-1.2-1.24c-1.22,1.66-2.56,3.12-4.01,4.39-1.46,1.27-2.92,2.25-4.4,2.94-1.48.69-2.9,1.04-4.26,1.04-2.39,0-4.04-.9-4.93-2.69-.89-1.79-1.34-4.04-1.34-6.75,0-1.51.13-3.09.36-4.72,2.13,0,4.32-.31,6.54-.91,2.25-.61,4.42-1.46,6.51-2.57,2.09-1.1,3.94-2.44,5.56-4.02,1.62-1.57,2.91-3.33,3.87-5.26.96-1.93,1.44-4.03,1.44-6.29,0-2.43-.65-4.33-1.94-5.71-1.29-1.38-3.25-2.07-5.88-2.07s-5.27.68-7.64,2.03c-2.37,1.35-4.5,3.16-6.41,5.42-1.9,2.26-3.52,4.79-4.86,7.58-1.34,2.79-2.36,5.65-3.06,8.57-.7,2.93-1.06,5.69-1.06,8.28,0,4.25.92,7.54,2.75,9.85,1.83,2.32,4.39,3.48,7.67,3.48,2.58,0,5.3-.87,8.17-2.61,2.86-1.74,5.56-4.65,8.1-8.74ZM474.27,35.57c.92-2.46,1.99-4.68,3.24-6.67,1.24-1.99,2.6-3.57,4.08-4.76,1.48-1.19,3.01-1.78,4.61-1.78,1.22,0,2.13.37,2.75,1.12.61.75.92,1.75.92,3.02,0,1.66-.47,3.45-1.41,5.38-.94,1.93-2.24,3.76-3.91,5.47-1.67,1.71-3.6,3.12-5.81,4.22-2.07,1.04-4.29,1.57-6.64,1.63,0-.05.02-.09.03-.14.52-2.54,1.23-5.04,2.15-7.5Z"/>
      <path d="M528.54,1.86c-1.34-.47-2.83-.7-4.47-.7-2.77,0-5.49.65-8.17,1.95-2.68,1.3-5.07,3.34-7.18,6.13-2.11,2.79-3.68,6.39-4.72,10.81l-7.67,1.32-.28,1.49h7.32l-7.04,39.09c-.89,4.69-1.92,8.36-3.1,11.02-1.17,2.65-3.03,3.98-5.56,3.98-.84,0-1.77-.15-2.78-.46-1.01-.3-2.12-.79-3.34-1.45l-.56,1.9c.94.77,2.11,1.42,3.52,1.95,1.41.52,2.75.79,4.01.79,3.71,0,6.79-1.57,9.26-4.72,2.46-3.15,4.33-8.34,5.6-15.57l6.48-36.52h12.95l.56-2.82h-12.88c.47-2.76,1.1-5.11,1.9-7.04.8-1.93,1.68-3.49,2.64-4.68.96-1.19,1.97-2.04,3.03-2.57,1.06-.52,2.08-.79,3.06-.79,1.64,0,2.92.59,3.84,1.78.92,1.19,1.37,2.91,1.37,5.18v1.12c0,.36-.05.76-.14,1.2h2.32l3.17-10.52c-.75-.77-1.79-1.39-3.13-1.86Z"/>
    </g>
  </g>
</svg>