<?xml version="1.0" encoding="UTF-8"?>
<svg id="Layer_2" data-name="Layer 2" xmlns="http://www.w3.org/2000/svg" viewBox="0 0 353.74 213.04">
  <defs>
    <style>
      .cls-1 {
        fill: #686868;
      }
    </style>
  </defs>
  <g id="Layer_1-2" data-name="Layer 1">
    <g>
      <polygon class="cls-1" points="6.08 4.81 12.37 4.81 12.37 36.27 7.62 37.3 7.62 38.86 21.52 38.86 21.52 37.3 16.77 36.27 16.77 4.81 23.06 4.81 26.53 15 27.85 15 27.1 2.64 2.04 2.64 1.29 15 2.61 15 6.08 4.81"/>
      <path class="cls-1" d="M36.21,38.86h3.69v-1.55l-3.69-.78v-18.46c.84-.99,1.76-1.81,2.77-2.45,1.26-.79,2.52-1.19,3.78-1.19,1.52,0,2.54.54,3.03,1.63.5,1.09.75,2.53.75,4.32v16.14l-3.69.78v1.55h11.35v-1.55l-3.69-.78v-17.75c0-2.38-.56-4.24-1.69-5.59-1.13-1.35-2.62-2.02-4.46-2.02-1.55,0-3.12.54-4.71,1.63-1.31.9-2.44,2.06-3.43,3.46V0c-.62.14-1.33.28-2.16.41-.82.14-1.69.27-2.62.39-.92.12-1.88.22-2.88.29v1.55h3.69v33.89l-3.69.78v1.55h7.65Z"/>
      <path class="cls-1" d="M58.79,37.59c1.48,1.19,3.17,1.78,5.08,1.78,1.29,0,2.51-.23,3.65-.7,1.14-.47,2.18-1.22,3.12-2.25.94-1.04,1.71-2.36,2.33-3.98l-1.23-.72c-.7,1.69-1.6,2.96-2.68,3.8-1.08.85-2.21,1.27-3.39,1.27-1.52,0-2.86-.49-4-1.48-1.14-.98-2.02-2.36-2.64-4.14-.62-1.78-.92-3.87-.92-6.29,0-.05,0-.1,0-.16h14.82c.15-2.72-.17-5.1-.95-7.14-.78-2.03-1.87-3.61-3.28-4.73-1.41-1.12-3.03-1.68-4.88-1.68-1.96,0-3.69.59-5.17,1.76-1.48,1.17-2.62,2.8-3.43,4.89-.81,2.09-1.21,4.51-1.21,7.27s.42,5.36,1.28,7.5c.85,2.14,2.02,3.8,3.5,4.99ZM58.77,18.63c.44-1.72,1.09-3.04,1.96-3.93.86-.9,1.9-1.35,3.1-1.35,1,0,1.86.33,2.59.98.73.66,1.3,1.57,1.72,2.74.41,1.17.62,2.57.62,4.19,0,.43-.02.86-.05,1.29h-10.51c.1-1.46.28-2.79.58-3.93Z"/>
      <polygon points="42 53.96 48.77 74.07 51.43 74.07 51.43 50.07 3.71 50.07 3.71 53.2 10.96 55 10.96 111.53 3.71 113.33 3.71 116.46 33.38 116.46 33.38 113.33 25.31 111.53 25.31 86.4 33.94 86.4 38.21 100.81 40.71 100.81 40.07 84.21 41.52 69.04 38.86 69.04 33.94 82.79 25.31 82.79 25.31 53.96 42 53.96"/>
      <path d="M69.61,57.8c1.42-1.42,2.14-3.33,2.14-5.74s-.71-4.32-2.14-5.74c-1.42-1.42-3.32-2.13-5.68-2.13s-4.26.71-5.68,2.13c-1.42,1.42-2.14,3.34-2.14,5.74s.71,4.31,2.14,5.74c1.42,1.42,3.32,2.13,5.68,2.13s4.26-.71,5.68-2.13Z"/>
      <path d="M52.64,113.33v3.13h23.62v-3.13l-5.48-1.42v-46.85c-1.45.25-3.2.51-5.24.76-2.04.25-4.17.46-6.37.62-2.2.16-4.38.3-6.53.43v3.13h5.48v41.92l-5.48,1.42Z"/>
      <path d="M96.1,116.46h5.48v-3.13l-5.48-1.42v-33.32c1.25-1.76,2.6-3.17,4.07-4.19,1.85-1.3,3.75-1.94,5.68-1.94s3.35.73,4.07,2.18c.73,1.46,1.09,3.57,1.09,6.35v30.92l-5.48,1.42v3.13h23.62v-3.13l-5.48-1.42v-32.63c0-4.24-1.13-7.55-3.39-9.96-2.26-2.4-5.35-3.6-9.27-3.6-3.22,0-6.26.87-9.11,2.61-2.4,1.47-4.32,3.42-5.8,5.81v-8.71c-1.34.25-3.01.47-5,.66-1.99.19-4.11.35-6.37.47-2.26.13-4.51.22-6.77.28v3.13h5.48v41.92l-5.48,1.42v3.13h18.14Z"/>
      <path d="M139.63,117.41c2.58,0,5.23-.85,7.94-2.56,2.38-1.49,4.7-3.62,6.97-6.37v8.93c1.5-.44,3.14-.81,4.92-1.09,1.77-.29,3.67-.52,5.68-.71,2.02-.19,4.15-.32,6.41-.38v-3.13h-4.6v-31.58c0-4.87-1.44-8.55-4.31-11.05-2.88-2.5-7.4-3.75-13.58-3.75-1.83,0-3.72.16-5.68.47-1.96.32-3.86.79-5.68,1.42-1.83.63-3.41,1.42-4.76,2.37l2.74,13.18,2.42-.28c.59-2.85,1.44-5.26,2.54-7.26,1.1-1.99,2.35-3.51,3.75-4.55,1.4-1.04,2.79-1.56,4.19-1.56,1.24,0,2.26.32,3.06.95.81.63,1.41,1.53,1.81,2.7.4,1.17.69,2.59.85,4.27.16,1.68.24,3.56.24,5.64v4.36c-4.84,1.27-8.83,2.53-11.97,3.79-3.14,1.26-5.63,2.61-7.46,4.03-1.83,1.42-3.13,3.02-3.91,4.79-.78,1.77-1.17,3.83-1.17,6.16,0,3.29.85,5.98,2.54,8.06,1.69,2.09,4.04,3.13,7.05,3.13ZM143.21,97.35c.83-1.49,2.18-2.73,4.03-3.75,1.85-1.01,4.29-1.93,7.3-2.75v13.92c-.96,1.19-2,2.15-3.14,2.87-1.51.95-2.93,1.42-4.27,1.42-1.67,0-2.94-.55-3.83-1.66-.89-1.11-1.33-2.67-1.33-4.69s.42-3.87,1.25-5.36Z"/>
      <path d="M218.55,79.28c0-4.24-1.13-7.55-3.39-9.96-2.26-2.4-5.35-3.6-9.27-3.6-3.22,0-6.26.87-9.11,2.61-2.4,1.47-4.32,3.42-5.8,5.81v-8.71c-1.34.25-3.01.47-5,.66-1.99.19-4.11.35-6.37.47-2.26.13-4.51.22-6.77.28v3.13h5.48v41.92l-5.48,1.42v3.13h23.62v-3.13l-5.48-1.42v-33.32c1.25-1.76,2.6-3.17,4.07-4.19,1.85-1.3,3.75-1.94,5.68-1.94s3.35.73,4.07,2.18c.73,1.46,1.09,3.57,1.09,6.35v30.92l-5.48,1.42v3.13h23.62v-3.13l-5.48-1.42v-32.63Z"/>
      <path d="M254.38,109.11c-1.85,1.42-3.94,2.13-6.25,2.13-2.53,0-4.72-.81-6.57-2.42s-3.29-3.92-4.31-6.92c-1.02-3-1.53-6.69-1.53-11.05,0-5.06.44-9.14,1.33-12.23.89-3.1,2.06-5.34,3.51-6.73,1.45-1.39,3.09-2.09,4.92-2.09,1.56,0,2.96.66,4.19,1.99,1.24,1.33,2.3,3.19,3.18,5.6.89,2.4,1.57,5.25,2.06,8.54h2.66l2.26-17.36c-.86-.51-2.06-.98-3.59-1.42-1.53-.44-3.22-.79-5.08-1.04-1.85-.25-3.64-.38-5.36-.38-4.73,0-8.81,1.06-12.25,3.18-3.44,2.12-6.1,5.12-7.98,9.01-1.88,3.89-2.82,8.49-2.82,13.8s.89,9.8,2.66,13.66c1.77,3.86,4.26,6.83,7.46,8.91,3.2,2.09,6.95,3.13,11.25,3.13,3.87,0,7.32-1.17,10.36-3.51,3.04-2.34,5.31-5.5,6.81-9.48l-2.26-1.33c-1.24,2.59-2.78,4.6-4.64,6.02Z"/>
      <path d="M272.97,59.93c2.36,0,4.26-.71,5.68-2.13,1.42-1.42,2.14-3.33,2.14-5.74s-.71-4.32-2.14-5.74c-1.42-1.42-3.32-2.13-5.68-2.13s-4.26.71-5.68,2.13c-1.42,1.42-2.14,3.34-2.14,5.74s.71,4.31,2.14,5.74c1.42,1.42,3.32,2.13,5.68,2.13Z"/>
      <path d="M279.82,65.06c-1.45.25-3.2.51-5.24.76-2.04.25-4.17.46-6.37.62-2.2.16-4.38.3-6.53.43v3.13h5.48v41.92l-5.48,1.42v3.13h23.62v-3.13l-5.48-1.42v-46.85Z"/>
      <path d="M323.75,80.51c0-4.87-1.44-8.55-4.31-11.05-2.88-2.5-7.4-3.75-13.58-3.75-1.83,0-3.72.16-5.68.47-1.96.32-3.86.79-5.68,1.42-1.83.63-3.41,1.42-4.76,2.37l2.74,13.18,2.42-.28c.59-2.85,1.44-5.26,2.54-7.26s2.35-3.51,3.75-4.55c1.4-1.04,2.79-1.56,4.19-1.56,1.24,0,2.26.32,3.06.95.81.63,1.41,1.53,1.81,2.7.4,1.17.68,2.59.85,4.27.16,1.68.24,3.56.24,5.64v4.36c-4.84,1.27-8.83,2.53-11.97,3.79-3.14,1.26-5.63,2.61-7.46,4.03s-3.13,3.02-3.91,4.79c-.78,1.77-1.17,3.83-1.17,6.16,0,3.29.85,5.98,2.54,8.06,1.69,2.09,4.04,3.13,7.05,3.13,2.58,0,5.23-.85,7.94-2.56,2.38-1.49,4.7-3.62,6.97-6.37v8.93c1.5-.44,3.14-.81,4.92-1.09,1.77-.29,3.67-.52,5.68-.71,2.02-.19,4.15-.32,6.41-.38v-3.13h-4.6v-31.58ZM308.19,107.64c-1.51.95-2.93,1.42-4.27,1.42-1.67,0-2.94-.55-3.83-1.66-.89-1.11-1.33-2.67-1.33-4.69s.41-3.87,1.25-5.36c.83-1.49,2.18-2.73,4.03-3.75,1.85-1.01,4.29-1.93,7.3-2.75v13.92c-.96,1.19-2,2.15-3.14,2.87Z"/>
      <path d="M348.26,111.91V45.04c-1.34.32-3.01.6-5,.85-1.99.25-4.11.47-6.37.66-2.26.19-4.51.32-6.77.38v3.13h5.48v61.84l-5.48,1.42v3.13h23.62v-3.13l-5.48-1.42Z"/>
      <path d="M46.31,163.67c-2.88-2.43-6.73-3.81-11.57-4.13,3.01-.7,5.91-1.82,8.71-3.37,2.79-1.55,5.11-3.57,6.93-6.07,1.83-2.5,2.74-5.48,2.74-8.96,0-4.43-1.64-7.78-4.92-10.05-3.28-2.28-8.28-3.41-14.99-3.41H11.45l-.32,2.85,7.66,1.8-10.16,57.19-8.3,1.71-.32,2.85h23.78c5.53,0,10.31-.85,14.31-2.56,4-1.71,7.09-4.08,9.27-7.11,2.18-3.04,3.27-6.48,3.27-10.34,0-4.49-1.44-7.95-4.31-10.39ZM26.93,131.94h2.58c5.64,0,9.62.93,11.93,2.8,2.31,1.87,3.44,4.6,3.39,8.2,0,2.28-.47,4.33-1.41,6.17-.94,1.83-2.24,3.41-3.91,4.74-1.67,1.33-3.67,2.34-6.01,3.04-2.34.7-4.93,1.04-7.78,1.04h-3.39l4.59-25.99ZM40.15,182.4c-1.51,2.4-3.6,4.28-6.29,5.64-2.69,1.36-5.86,2.04-9.51,2.04-1.51,0-2.84-.14-3.99-.43-1.16-.29-2.33-.65-3.51-1.09l4.68-26.27h6.93c4.46,0,7.9.98,10.32,2.94,2.42,1.96,3.63,4.9,3.63,8.82,0,3.16-.75,5.94-2.26,8.35Z"/>
      <path d="M87.03,144.51c-.94-.92-2.24-1.38-3.91-1.38-1.77,0-3.47.66-5.08,1.99-1.61,1.33-3.27,3.54-4.96,6.64-1.69,3.1-3.57,7.29-5.64,12.57-1.34,3.42-2.8,7.41-4.38,11.94.55-2.32,1.09-4.64,1.64-6.96.67-2.85,1.26-5.56,1.77-8.16.51-2.59.93-4.93,1.25-7.02.32-2.09.48-3.76.48-5.03,0-2.09-.36-3.6-1.09-4.55-.73-.95-1.68-1.42-2.86-1.42-1.51,0-3.4.73-5.68,2.18-2.29,1.45-4.37,3.57-6.25,6.35l1.29,1.52c1.24-1.64,2.38-2.85,3.43-3.6,1.05-.76,1.84-1.14,2.38-1.14.48,0,.87.18,1.17.52.29.35.44,1.03.44,2.04,0,.89-.27,2.81-.81,5.79-.54,2.97-1.25,6.59-2.14,10.86-.89,4.27-1.88,8.87-2.98,13.8-1.1,4.93-2.19,9.83-3.27,14.7l6.61-2.09c2.2-5.82,4.19-10.95,5.97-15.41s3.37-8.35,4.8-11.67c1.42-3.32,2.67-6.12,3.75-8.39,1.07-2.28,2.04-4.11,2.9-5.5.86-1.39,1.61-2.4,2.26-3.04.64-.63,1.24-.95,1.77-.95.91,0,1.56.73,1.93,2.18.38,1.46.56,3.19.56,5.22,0,.95-.04,1.93-.12,2.94-.08,1.01-.18,1.99-.28,2.94-.11.95-.24,1.83-.4,2.65l2.42.19,5.08-17.36c-.43-1.33-1.12-2.45-2.06-3.37Z"/>
      <path d="M101.05,188.61c-1.1.73-1.95,1.09-2.54,1.09-.54,0-.91-.22-1.13-.66-.22-.44-.32-1.1-.32-1.99s.25-2.51.77-4.88c.51-2.37,1.14-5.14,1.89-8.3.75-3.16,1.5-6.4,2.26-9.72.75-3.32,1.38-6.39,1.89-9.2.51-2.81.77-5.01.77-6.59,0-1.71-.4-2.99-1.21-3.84-.81-.85-1.83-1.28-3.06-1.28-1.77,0-3.68.71-5.72,2.13-2.04,1.42-4.03,3.53-5.97,6.31l1.21,1.61c1.24-1.64,2.4-2.85,3.51-3.6,1.1-.76,1.95-1.14,2.54-1.14.43,0,.79.16,1.09.47.29.32.44.79.44,1.42,0,1.08-.26,2.83-.77,5.26-.51,2.43-1.14,5.22-1.89,8.35-.75,3.13-1.5,6.34-2.26,9.63-.75,3.29-1.38,6.34-1.89,9.15-.51,2.81-.77,5.11-.77,6.88s.31,3.02.93,3.94c.62.92,1.79,1.38,3.51,1.38,1.56,0,3.41-.74,5.56-2.23,2.15-1.49,4.11-3.56,5.89-6.21l-1.21-1.61c-1.24,1.71-2.41,2.92-3.51,3.65Z"/>
      <path d="M100.08,125.45c-1.05,1.17-1.57,2.67-1.57,4.5,0,1.71.47,3.11,1.41,4.22.94,1.11,2.11,1.66,3.51,1.66,1.56,0,2.86-.6,3.91-1.8s1.57-2.69,1.57-4.46-.46-3.11-1.37-4.22c-.91-1.11-2.07-1.66-3.47-1.66-1.61,0-2.94.58-3.99,1.75Z"/>
      <path d="M136.4,182.02l-1.37-1.42c-1.4,1.9-2.93,3.57-4.59,5.03-1.67,1.45-3.35,2.58-5.04,3.37-1.69.79-3.32,1.19-4.88,1.19-2.74,0-4.62-1.03-5.64-3.08-1.02-2.05-1.53-4.63-1.53-7.73,0-1.73.14-3.54.41-5.41,2.44,0,4.94-.35,7.49-1.04,2.58-.69,5.07-1.67,7.46-2.94,2.39-1.26,4.51-2.8,6.37-4.6s3.33-3.81,4.43-6.02c1.1-2.21,1.65-4.61,1.65-7.21,0-2.78-.74-4.96-2.22-6.54-1.48-1.58-3.72-2.37-6.73-2.37s-6.03.78-8.75,2.32c-2.71,1.55-5.16,3.62-7.34,6.21-2.18,2.59-4.03,5.49-5.56,8.68-1.53,3.19-2.7,6.47-3.51,9.82-.81,3.35-1.21,6.51-1.21,9.48,0,4.87,1.05,8.63,3.14,11.29,2.1,2.66,5.02,3.98,8.79,3.98,2.96,0,6.07-1,9.35-2.99,3.28-1.99,6.37-5.33,9.27-10.01ZM116.69,162.53c1.05-2.81,2.28-5.36,3.71-7.64,1.42-2.28,2.98-4.09,4.68-5.45,1.69-1.36,3.45-2.04,5.28-2.04,1.4,0,2.45.43,3.14,1.28.7.85,1.05,2.01,1.05,3.46,0,1.9-.54,3.95-1.61,6.16-1.08,2.21-2.57,4.3-4.47,6.26-1.91,1.96-4.13,3.57-6.65,4.84-2.37,1.19-4.91,1.79-7.61,1.87.01-.05.02-.11.03-.16.59-2.91,1.41-5.77,2.46-8.58Z"/>
      <path d="M173.73,123.12c-3.17,0-6.29.74-9.35,2.23-3.06,1.49-5.8,3.83-8.22,7.02s-4.22,7.32-5.4,12.38l-8.79,1.52-.32,1.71h8.38l-8.06,44.77c-1.02,5.37-2.2,9.58-3.55,12.61-1.34,3.04-3.47,4.55-6.37,4.55-.97,0-2.03-.18-3.18-.52-1.16-.35-2.43-.9-3.83-1.66l-.64,2.18c1.08.88,2.42,1.63,4.03,2.23,1.61.6,3.14.9,4.6.9,4.25,0,7.78-1.8,10.6-5.41,2.82-3.6,4.96-9.55,6.41-17.83l7.42-41.83h14.83l.64-3.22h-14.75c.54-3.16,1.26-5.85,2.18-8.06.91-2.21,1.92-4,3.02-5.36,1.1-1.36,2.26-2.34,3.47-2.94,1.21-.6,2.38-.9,3.51-.9,1.88,0,3.35.68,4.39,2.04,1.05,1.36,1.57,3.34,1.57,5.93v1.28c0,.41-.05.87-.16,1.37h2.66l3.63-12.04c-.86-.88-2.06-1.6-3.59-2.13-1.53-.54-3.24-.81-5.12-.81Z"/>
    </g>
  </g>
</svg>